<svg width="78" height="78" viewBox="0 0 78 78" fill="none" xmlns="http://www.w3.org/2000/svg">
<g filter="url(#filter0_dd_225_414)">
<g clip-path="url(#clip0_225_414)">
<path d="M15 39C15 25.7452 25.7452 15 39 15C52.2548 15 63 25.7452 63 39C63 52.2548 52.2548 63 39 63C25.7452 63 15 52.2548 15 39Z" fill="#121212"/>
<path fill-rule="evenodd" clip-rule="evenodd" d="M49.0876 34.5082L37.4211 46.1747C37.0497 46.5461 36.5672 46.7305 36.0821 46.7305C35.5945 46.7305 35.112 46.5461 34.7406 46.1747L28.9074 40.3415C28.1672 39.6013 28.1672 38.4013 28.9074 37.6611C29.6476 36.9208 30.8451 36.9208 31.5853 37.6611L36.0821 42.1554L46.4072 31.8278C47.1474 31.0876 48.3474 31.0876 49.0876 31.8278C49.8278 32.568 49.8278 33.768 49.0876 34.5082ZM39 15C25.7672 15 15 25.7672 15 39C15 52.2354 25.7672 63 39 63C52.2328 63 63 52.2354 63 39C63 25.7672 52.2328 15 39 15Z" fill="#4DD67B"/>
</g>
</g>
<defs>
<filter id="filter0_dd_225_414" x="0" y="0" width="78" height="78" filterUnits="userSpaceOnUse" color-interpolation-filters="sRGB">
<feFlood flood-opacity="0" result="BackgroundImageFix"/>
<feColorMatrix in="SourceAlpha" type="matrix" values="0 0 0 0 0 0 0 0 0 0 0 0 0 0 0 0 0 0 127 0" result="hardAlpha"/>
<feMorphology radius="15" operator="dilate" in="SourceAlpha" result="effect1_dropShadow_225_414"/>
<feOffset/>
<feComposite in2="hardAlpha" operator="out"/>
<feColorMatrix type="matrix" values="0 0 0 0 0.301961 0 0 0 0 0.839216 0 0 0 0 0.482353 0 0 0 0.1 0"/>
<feBlend mode="normal" in2="BackgroundImageFix" result="effect1_dropShadow_225_414"/>
<feColorMatrix in="SourceAlpha" type="matrix" values="0 0 0 0 0 0 0 0 0 0 0 0 0 0 0 0 0 0 127 0" result="hardAlpha"/>
<feMorphology radius="7.5" operator="dilate" in="SourceAlpha" result="effect2_dropShadow_225_414"/>
<feOffset/>
<feComposite in2="hardAlpha" operator="out"/>
<feColorMatrix type="matrix" values="0 0 0 0 0.301961 0 0 0 0 0.839216 0 0 0 0 0.482353 0 0 0 0.2 0"/>
<feBlend mode="normal" in2="effect1_dropShadow_225_414" result="effect2_dropShadow_225_414"/>
<feBlend mode="normal" in="SourceGraphic" in2="effect2_dropShadow_225_414" result="shape"/>
</filter>
<clipPath id="clip0_225_414">
<path d="M15 39C15 25.7452 25.7452 15 39 15C52.2548 15 63 25.7452 63 39C63 52.2548 52.2548 63 39 63C25.7452 63 15 52.2548 15 39Z" fill="white"/>
</clipPath>
</defs>
</svg>
